<?xml version="1.0" standalone="no"?>
<!DOCTYPE svg PUBLIC "-//W3C//DTD SVG 20010904//EN"
 "http://www.w3.org/TR/2001/REC-SVG-20010904/DTD/svg10.dtd">
<svg version="1.0" xmlns="http://www.w3.org/2000/svg"
 width="736.000000pt" height="552.000000pt" viewBox="0 0 736.000000 552.000000"
 preserveAspectRatio="xMidYMid meet">
<metadata>
Created by potrace 1.15, written by Peter Selinger 2001-2017
</metadata>
<g transform="translate(0.000000,552.000000) scale(0.100000,-0.100000)"
fill="#000000" stroke="none">
<path d="M4600 4384 c-138 -28 -249 -83 -331 -165 -111 -110 -158 -234 -214
-558 -14 -83 -35 -131 -35 -81 0 16 -3 21 -8 12 -6 -9 -14 -4 -30 18 -16 21
-31 30 -50 30 -18 0 -37 10 -50 25 -12 14 -26 25 -31 25 -6 0 -13 16 -17 36
-5 29 -9 33 -16 20 -5 -9 -13 -14 -19 -11 -13 9 -11 -18 6 -110 9 -44 18 -105
21 -135 l5 -55 -20 25 c-12 15 -21 19 -21 11 0 -11 -3 -11 -16 0 -13 10 -17
10 -25 -2 -8 -10 -8 -8 -4 10 5 15 2 27 -6 32 -17 11 -68 12 -53 1 14 -9 58
-94 82 -157 28 -71 45 -189 38 -249 -22 -172 -108 -301 -315 -472 -2 -2 13
-11 35 -20 21 -9 69 -36 106 -60 357 -237 151 -756 -403 -1018 -131 -63 -254
-101 -405 -126 -111 -19 -155 -21 -314 -17 -210 5 -331 25 -500 82 -57 19
-106 33 -108 30 -13 -13 121 -180 231 -287 246 -240 529 -362 892 -386 l120
-8 -114 -37 c-63 -20 -123 -37 -133 -37 -71 0 88 -57 292 -104 276 -65 523
-62 729 8 122 41 225 110 345 230 l110 110 -43 -79 c-23 -43 -68 -117 -99
-164 -31 -47 -59 -90 -61 -95 -6 -14 69 1 171 35 484 160 796 501 847 929 7
52 14 96 16 99 3 2 5 -36 5 -85 0 -96 -13 -215 -35 -329 -30 -156 -34 -150 45
-65 243 259 403 536 451 783 20 102 15 298 -10 392 -27 100 -91 231 -153 312
-60 78 -62 92 -3 31 25 -27 45 -53 45 -59 0 -5 4 -8 9 -5 5 3 15 -2 22 -12 12
-15 12 -16 -1 -7 -9 6 -4 -1 10 -15 14 -14 21 -23 15 -20 -6 3 0 -5 13 -16 14
-12 21 -27 18 -33 -4 -6 -2 -11 3 -11 6 0 17 -16 25 -35 8 -19 24 -44 35 -56
11 -12 23 -35 26 -50 4 -16 10 -29 13 -29 4 0 18 -28 32 -62 l24 -61 18 69
c49 192 59 451 24 630 -41 204 -136 393 -267 531 -91 95 -147 141 -213 172
-81 38 -238 91 -270 91 -14 0 -28 5 -32 11 -8 14 48 5 111 -17 22 -7 48 -14
58 -14 9 0 25 -4 35 -9 9 -5 62 -28 117 -52 55 -23 118 -55 140 -69 22 -15 48
-30 58 -33 10 -4 16 -11 12 -16 -3 -6 4 -8 15 -6 11 2 20 0 20 -6 0 -5 4 -9
10 -9 9 0 36 -19 66 -48 18 -18 18 -12 -6 47 -41 106 -112 241 -122 235 -7 -4
-8 -2 -4 4 4 6 2 21 -5 33 -9 18 -13 19 -21 8 -7 -10 -8 -9 -4 6 7 24 -118
200 -134 190 -6 -4 -10 -3 -9 2 4 15 -13 43 -22 37 -5 -3 -9 0 -9 6 0 6 -4 8
-10 5 -6 -4 -7 1 -3 11 5 14 3 16 -11 11 -9 -4 -15 -3 -11 2 6 10 -82 87 -132
117 -18 10 -33 22 -33 27 0 5 -7 6 -16 3 -8 -3 -13 -2 -10 2 8 13 -149 86
-164 77 -8 -5 -11 -4 -7 2 9 14 -35 25 -59 16 -11 -4 -15 -2 -11 4 4 6 -9 13
-31 17 -53 9 -233 16 -262 10z"/>
</g>
</svg>
